<svg width="260" height="312" viewBox="0 0 260 312" fill="none" xmlns="http://www.w3.org/2000/svg">
<g opacity="0.2" clip-path="url(#clip0_216_53)">
<path d="M185.057 144C187.526 144 189.736 145.537 190.567 147.839L196.498 164.278C198.623 164.807 200.446 165.336 201.991 165.89C203.68 166.495 205.855 167.411 208.543 168.662L222.353 161.354C223.48 160.757 224.77 160.542 226.031 160.74C227.291 160.938 228.452 161.54 229.342 162.455L241.488 175.013C243.101 176.684 243.554 179.129 242.647 181.262L236.171 196.441C237.246 198.415 238.103 200.104 238.758 201.515C239.464 203.052 240.337 205.169 241.379 207.899L256.474 214.367C258.742 215.333 260.144 217.601 259.993 220.028L258.884 237.458C258.809 238.591 258.402 239.676 257.715 240.579C257.028 241.483 256.091 242.165 255.02 242.54L240.724 247.622C240.312 249.596 239.884 251.285 239.43 252.713C238.698 254.918 237.863 257.088 236.927 259.214L244.109 275.09C244.616 276.206 244.752 277.454 244.498 278.653C244.244 279.852 243.613 280.938 242.698 281.752L229.039 293.948C228.14 294.748 227.017 295.254 225.822 295.398C224.627 295.542 223.417 295.318 222.353 294.755L208.274 287.296C206.072 288.462 203.8 289.491 201.47 290.378L195.322 292.68L189.862 307.8C189.457 308.907 188.727 309.866 187.768 310.551C186.808 311.237 185.664 311.616 184.486 311.639L168.526 312C167.316 312.032 166.126 311.688 165.119 311.015C164.113 310.343 163.34 309.375 162.906 308.245L156.472 291.218C154.276 290.468 152.103 289.656 149.953 288.782C148.195 288.022 146.464 287.201 144.762 286.321L128.802 293.142C127.75 293.591 126.591 293.724 125.465 293.526C124.339 293.327 123.295 292.806 122.46 292.025L110.65 280.945C109.77 280.124 109.171 279.047 108.938 277.867C108.704 276.686 108.848 275.462 109.348 274.368L116.21 259.416C115.298 257.645 114.452 255.841 113.674 254.006C112.766 251.761 111.925 249.49 111.154 247.194L96.1176 242.616C94.8954 242.247 93.8294 241.484 93.0851 240.447C92.3409 239.409 91.96 238.155 92.0016 236.879L92.5896 220.742C92.6315 219.69 92.9604 218.668 93.5407 217.789C94.1211 216.909 94.9309 216.205 95.8824 215.753L111.658 208.176C112.388 205.496 113.027 203.413 113.59 201.893C114.382 199.862 115.262 197.867 116.227 195.912L109.39 181.464C108.871 180.367 108.713 179.133 108.94 177.941C109.166 176.749 109.765 175.659 110.65 174.828L122.443 163.69C123.27 162.91 124.304 162.386 125.422 162.18C126.54 161.974 127.693 162.096 128.743 162.53L144.686 169.116C146.45 167.94 148.046 166.991 149.491 166.226C151.213 165.311 153.515 164.353 156.413 163.32L161.957 147.856C162.367 146.724 163.116 145.746 164.102 145.056C165.088 144.366 166.264 143.997 167.467 144H185.057ZM176.203 202.96C162.2 202.96 150.852 214.174 150.852 228.017C150.852 241.86 162.2 253.082 176.203 253.082C190.198 253.082 201.546 241.86 201.546 228.017C201.546 214.174 190.206 202.96 176.203 202.96Z" fill="#67A8D2"/>
</g>
<g opacity="0.2" clip-path="url(#clip1_216_53)">
<path d="M93.0568 1.53312e-05C95.5264 1.53312e-05 97.7356 1.53722 98.5672 3.83881L104.498 20.2776C106.623 20.8068 108.446 21.336 109.991 21.8904C111.68 22.4952 113.855 23.4108 116.543 24.6624L130.353 17.3544C131.48 16.7572 132.77 16.5417 134.031 16.7401C135.291 16.9385 136.452 17.5402 137.342 18.4548L149.488 31.0128C151.101 32.6844 151.554 35.1288 150.647 37.2624L144.171 52.4412C145.246 54.4152 146.103 56.1036 146.758 57.5148C147.464 59.052 148.337 61.1688 149.379 63.8988L164.474 70.3668C166.742 71.3328 168.144 73.6008 167.993 76.0284L166.884 93.4584C166.809 94.5908 166.402 95.6759 165.715 96.5794C165.028 97.4828 164.091 98.1646 163.02 98.5404L148.724 103.622C148.312 105.596 147.884 107.285 147.43 108.713C146.698 110.918 145.863 113.088 144.927 115.214L152.109 131.09C152.616 132.206 152.752 133.454 152.498 134.653C152.244 135.852 151.613 136.938 150.698 137.752L137.039 149.948C136.14 150.748 135.017 151.254 133.822 151.398C132.627 151.542 131.417 151.318 130.353 150.755L116.274 143.296C114.072 144.462 111.8 145.491 109.47 146.378L103.322 148.68L97.8616 163.8C97.457 164.907 96.7271 165.866 95.7677 166.551C94.8084 167.237 93.6643 167.616 92.4856 167.639L76.5256 168C75.3157 168.032 74.1257 167.688 73.1193 167.015C72.113 166.343 71.3397 165.375 70.906 164.245L64.4716 147.218C62.2763 146.468 60.1026 145.656 57.9532 144.782C56.1952 144.022 54.4638 143.201 52.762 142.321L36.802 149.142C35.7504 149.591 34.591 149.724 33.4651 149.526C32.3391 149.327 31.295 148.806 30.46 148.025L18.6496 136.945C17.7703 136.124 17.1715 135.047 16.9378 133.867C16.7042 132.686 16.8475 131.462 17.3476 130.368L24.2104 115.416C23.2977 113.645 22.4515 111.841 21.6736 110.006C20.7656 107.761 19.9252 105.49 19.1536 103.194L4.11762 98.616C2.89543 98.2466 1.82941 97.484 1.08514 96.4465C0.340857 95.4091 -0.0400318 94.1549 0.0016219 92.8788L0.589622 76.7424C0.631476 75.6896 0.96037 74.6682 1.54074 73.7888C2.1211 72.9093 2.93086 72.2053 3.88242 71.7528L19.6576 64.176C20.3884 61.4964 21.0268 59.4132 21.5896 57.8928C22.3821 55.8621 23.2621 53.8666 24.2272 51.912L17.3896 37.464C16.8707 36.3668 16.7131 35.1333 16.9395 33.9409C17.166 32.7485 17.7647 31.6587 18.6496 30.828L30.4432 19.6896C31.27 18.9099 32.3044 18.3856 33.4221 18.18C34.5398 17.9743 35.6931 18.096 36.7432 18.5304L52.6864 25.116C54.4504 23.94 56.0464 22.9908 57.4912 22.2264C59.2132 21.3108 61.5148 20.3532 64.4128 19.32L69.9568 3.85562C70.3667 2.72387 71.1159 1.74622 72.1021 1.05616C73.0884 0.366094 74.2635 -0.00274051 75.4672 1.53312e-05H93.0568ZM88.9408 11.5668H79.5916L74.5096 25.7964C74.2108 26.6261 73.7274 27.3771 73.0958 27.9927C72.4643 28.6082 71.7011 29.0722 70.864 29.3496C67.2016 30.5676 64.5556 31.6176 63.01 32.4324C61.372 33.2976 59.2804 34.6164 56.794 36.3804C55.9802 36.9515 55.0354 37.3079 54.0472 37.4166C53.0589 37.5253 52.0593 37.3827 51.1408 37.002L35.7688 30.66L29.7796 36.3216L36.0208 49.5096C36.7768 51.1056 36.76 52.9536 35.9704 54.5244C34.2904 57.8928 33.1564 60.3792 32.5852 61.908C32.014 63.4284 31.2496 66.0408 30.3172 69.6528C30.1062 70.4714 29.7186 71.2339 29.1817 71.8869C28.6448 72.5399 27.9716 73.0675 27.2092 73.4328L12.1732 80.6484L11.8708 88.8804L25.4788 93.0132C27.2848 93.5592 28.7128 94.9452 29.3092 96.726C30.6532 100.758 31.7284 103.732 32.5012 105.596C33.5252 107.963 34.6576 110.281 35.8948 112.543C36.7432 114.122 36.802 116.004 36.0544 117.634L29.746 131.393L35.7184 137.004L50.6872 130.603C51.4935 130.259 52.3664 130.098 53.2426 130.133C54.1187 130.168 54.9761 130.397 55.7524 130.805C58.8184 132.418 61.1032 133.535 62.548 134.148C64.018 134.761 66.832 135.786 70.9144 137.18C71.7249 137.457 72.4643 137.909 73.0799 138.505C73.6955 139.1 74.1722 139.824 74.476 140.624L80.4232 156.341L88.2016 156.173L93.2164 142.279C93.5032 141.486 93.9591 140.765 94.5523 140.166C95.1456 139.567 95.862 139.105 96.652 138.81L105.363 135.551C107.564 134.736 110.235 133.451 113.351 131.687C114.214 131.202 115.184 130.942 116.173 130.93C117.163 130.919 118.139 131.156 119.013 131.62L132.26 138.634L139.71 131.989L133.192 117.6C132.857 116.861 132.683 116.06 132.682 115.249C132.68 114.438 132.851 113.636 133.184 112.896C134.712 109.477 135.746 106.898 136.266 105.252C136.779 103.639 137.308 101.312 137.82 98.322C137.997 97.3062 138.441 96.3559 139.107 95.5689C139.772 94.7819 140.636 94.1867 141.609 93.8448L155.452 88.9308L156.057 79.3548L142.449 73.5252C141.724 73.2168 141.07 72.7644 140.526 72.1955C139.981 71.6266 139.558 70.953 139.282 70.2156C138.312 67.538 137.253 64.8934 136.107 62.286C135.022 60.0157 133.845 57.7907 132.579 55.6164C132.14 54.8482 131.885 53.9889 131.834 53.1057C131.783 52.2226 131.937 51.3396 132.285 50.526L138.375 36.246L131.957 29.61L119.458 36.2292C118.642 36.662 117.736 36.8973 116.812 36.9163C115.889 36.9353 114.974 36.7373 114.141 36.3384C111.488 35.0193 108.774 33.8252 106.01 32.76C103.652 31.9683 101.248 31.3231 98.8108 30.828C97.8438 30.623 96.9448 30.1754 96.1984 29.5274C95.4519 28.8794 94.8825 28.0522 94.5436 27.1236L88.9324 11.5584L88.9408 11.5668ZM84.2032 47.3844C104.657 47.3844 121.247 63.7896 121.247 84.0168C121.247 104.244 104.657 120.641 84.2032 120.641C63.7408 120.641 47.1592 104.244 47.1592 84.0168C47.1592 63.7896 63.7408 47.3928 84.2032 47.3928V47.3844ZM84.2032 58.9596C70.2004 58.9596 58.852 70.1736 58.852 84.0168C58.852 97.86 70.2004 109.082 84.2032 109.082C98.1976 109.082 109.546 97.86 109.546 84.0168C109.546 70.1736 98.206 58.9596 84.2032 58.9596Z" fill="#67A8D2"/>
</g>
<defs>
<clipPath id="clip0_216_53">
<rect width="168" height="168" fill="white" transform="translate(92 144)"/>
</clipPath>
<clipPath id="clip1_216_53">
<rect width="168" height="168" fill="white"/>
</clipPath>
</defs>
</svg>
