<svg width="143" height="89" viewBox="0 0 143 89" fill="none" xmlns="http://www.w3.org/2000/svg">
<path d="M0 55.5329L8.2397 82.8888C8.56929 84.024 10.1074 86.2725 13.623 86.1846C17.3583 86.1846 18.2372 82.9986 19.3358 81.131C20.2147 79.6368 25.4149 70.1813 27.9051 65.6403C31.201 71.2799 37.8367 82.6251 38.0125 82.8888C38.2322 83.2183 39.4407 86.1846 43.2859 86.1846C47.0911 86.1846 48.099 82.9569 48.6519 81.1863L48.6692 81.131C48.981 80.1332 51.3021 71.6659 53.396 63.9924C54.2534 60.8504 55.0727 57.8415 55.7004 55.5329H49.4382C48.4861 55.4963 46.4499 55.9285 45.9226 57.9499C45.3953 59.9714 42.9929 69.7785 41.8577 74.4293L33.1785 57.9499C32.5926 56.8879 30.7176 54.7859 27.9051 54.8738C25.0926 54.9617 23.3641 56.9612 22.8514 57.9499L14.1723 74.4293L9.77778 57.9499C9.66792 57.1443 8.78902 55.5329 6.15231 55.5329H0Z" fill="#FA6232"/>
<path d="M82.397 55.5329H55.7004C55.0727 57.8415 54.2534 60.8504 53.396 63.9924C54.4529 63.1135 57.7164 63.1867 59.216 63.3332H72.839C75.3878 63.3332 77.6363 61.5021 78.442 60.5866L82.397 55.5329Z" fill="#FA6232"/>
<path d="M53.613 67.1782C53.6862 67.3979 54.8874 67.8374 59.1061 67.8374H73.9376C76.7574 67.874 82.4629 69.0459 82.7266 73.4404C83.0562 78.9335 82.8365 84.8661 74.9264 85.1957C68.5983 85.4594 53.8327 85.5985 47.241 85.6352C47.9001 85.2689 49.4602 83.2401 50.427 78.0546H72.1798C72.8756 77.9081 74.2672 77.2856 74.2672 75.9672C74.2672 74.3193 72.7291 73.77 72.1798 73.77H56.799C55.4074 73.8432 52.4485 73.8798 51.7453 73.4404C51.8332 73.4404 53.0271 69.2656 53.613 67.1782Z" fill="white"/>
<path d="M95.8688 73.3013V84.5336H93.7014V79.7401H88.6073V84.5336H86.4241V73.3013H88.6073V77.8417H93.7014V73.3013H95.8688Z" fill="white"/>
<path d="M101.696 84.6918C100.789 84.6918 100.008 84.4967 99.3544 84.1065C98.7111 83.7057 98.2154 83.1784 97.8673 82.5245C97.5193 81.8706 97.3453 81.1639 97.3453 80.4046C97.3453 79.6346 97.5193 78.9227 97.8673 78.2688C98.2259 77.6149 98.7269 77.0928 99.3703 76.7026C100.024 76.3018 100.799 76.1014 101.696 76.1014C102.592 76.1014 103.362 76.3018 104.006 76.7026C104.659 77.0928 105.16 77.6149 105.509 78.2688C105.857 78.9227 106.031 79.6346 106.031 80.4046C106.031 81.1639 105.857 81.8706 105.509 82.5245C105.16 83.1784 104.659 83.7057 104.006 84.1065C103.362 84.4967 102.592 84.6918 101.696 84.6918ZM99.5285 80.4046C99.5285 80.8897 99.6234 81.3221 99.8132 81.7018C100.003 82.0709 100.261 82.361 100.588 82.5719C100.915 82.7829 101.285 82.8883 101.696 82.8883C102.097 82.8883 102.46 82.7829 102.787 82.5719C103.114 82.3504 103.373 82.0551 103.563 81.686C103.763 81.3063 103.863 80.8739 103.863 80.3887C103.863 79.9141 103.763 79.4923 103.563 79.1231C103.373 78.7434 103.114 78.4481 102.787 78.2372C102.46 78.0157 102.097 77.905 101.696 77.905C101.285 77.905 100.915 78.0157 100.588 78.2372C100.261 78.4481 100.003 78.7434 99.8132 79.1231C99.6234 79.4923 99.5285 79.9194 99.5285 80.4046Z" fill="white"/>
<path d="M110.515 84.6918C109.808 84.6918 109.133 84.5758 108.49 84.3438C107.846 84.1118 107.293 83.769 106.829 83.3155L107.588 81.9391C108.084 82.3399 108.569 82.6352 109.043 82.825C109.518 83.0149 109.982 83.1098 110.436 83.1098C110.847 83.1098 111.174 83.036 111.417 82.8883C111.67 82.7407 111.796 82.5192 111.796 82.2239C111.796 81.918 111.643 81.7124 111.337 81.6069C111.032 81.4909 110.604 81.3485 110.056 81.1797C109.444 80.9899 108.933 80.7948 108.521 80.5944C108.11 80.394 107.799 80.1514 107.588 79.8667C107.388 79.5819 107.287 79.2128 107.287 78.7592C107.287 77.9471 107.593 77.2985 108.205 76.8134C108.817 76.3282 109.629 76.0856 110.641 76.0856C111.232 76.0856 111.791 76.1805 112.318 76.3704C112.846 76.5497 113.325 76.845 113.758 77.2563L112.904 78.601C112.092 77.9682 111.306 77.6518 110.546 77.6518C110.209 77.6518 109.908 77.7151 109.645 77.8417C109.392 77.9682 109.265 78.1897 109.265 78.5061C109.265 78.8014 109.386 79.0124 109.629 79.1389C109.882 79.2655 110.262 79.4026 110.768 79.5503C111.422 79.7506 111.975 79.9458 112.429 80.1356C112.893 80.3254 113.241 80.568 113.473 80.8633C113.716 81.1586 113.837 81.5594 113.837 82.0657C113.837 82.8883 113.536 83.5317 112.935 83.9957C112.334 84.4598 111.527 84.6918 110.515 84.6918Z" fill="white"/>
<path d="M120.2 84.1065C119.915 84.233 119.562 84.3596 119.14 84.4862C118.729 84.6127 118.302 84.676 117.859 84.676C117.468 84.676 117.11 84.6075 116.783 84.4703C116.456 84.3332 116.192 84.117 115.992 83.8217C115.802 83.5159 115.707 83.1204 115.707 82.6352V77.8733H114.616V76.2438H115.707V73.5544H117.827V76.2438H119.567V77.8733H117.827V81.9233C117.827 82.2081 117.901 82.4137 118.049 82.5403C118.207 82.6668 118.397 82.7301 118.618 82.7301C118.84 82.7301 119.056 82.6932 119.267 82.6194C119.478 82.5456 119.646 82.4823 119.773 82.4295L120.2 84.1065Z" fill="white"/>
<path d="M121.304 75.089V72.9849H123.424V75.089H121.304ZM121.304 84.5336V76.2438H123.424V84.5336H121.304Z" fill="white"/>
<path d="M133.041 84.5336H130.921V79.8825C130.921 79.218 130.805 78.7329 130.573 78.427C130.341 78.1212 130.019 77.9682 129.608 77.9682C129.323 77.9682 129.033 78.0421 128.738 78.1897C128.453 78.3374 128.195 78.543 127.963 78.8067C127.731 79.0598 127.562 79.3551 127.456 79.6926V84.5336H125.336V76.2438H127.251V77.7784C127.557 77.2616 128 76.8555 128.58 76.5602C129.16 76.2544 129.814 76.1014 130.541 76.1014C131.058 76.1014 131.48 76.1964 131.807 76.3862C132.134 76.5655 132.387 76.8134 132.566 77.1298C132.746 77.4356 132.867 77.7837 132.93 78.1739C133.004 78.5641 133.041 78.9596 133.041 79.3604V84.5336Z" fill="white"/>
<path d="M138.127 84.5811C137.389 84.5811 136.74 84.3912 136.181 84.0116C135.622 83.6319 135.185 83.1256 134.868 82.4928C134.552 81.8495 134.394 81.1481 134.394 80.3887C134.394 79.5872 134.557 78.8647 134.884 78.2214C135.211 77.5675 135.665 77.0507 136.245 76.671C136.825 76.2913 137.495 76.1014 138.254 76.1014C138.897 76.1014 139.462 76.2491 139.947 76.5444C140.432 76.8292 140.833 77.2141 141.149 77.6993V76.2438H143V84.1381C143 84.9608 142.8 85.6621 142.399 86.2422C142.009 86.8328 141.465 87.2811 140.769 87.5869C140.073 87.9033 139.282 88.0615 138.396 88.0615C137.489 88.0615 136.725 87.9086 136.102 87.6028C135.491 87.3074 134.963 86.8856 134.52 86.3371L135.675 85.2139C135.992 85.6041 136.387 85.91 136.862 86.1315C137.347 86.353 137.858 86.4637 138.396 86.4637C138.839 86.4637 139.245 86.3793 139.614 86.2106C139.994 86.0524 140.3 85.7992 140.532 85.4512C140.764 85.1137 140.88 84.676 140.88 84.1381V83.094C140.606 83.5686 140.216 83.9377 139.709 84.2014C139.214 84.4545 138.686 84.5811 138.127 84.5811ZM138.839 82.8883C139.303 82.8883 139.72 82.7512 140.089 82.477C140.469 82.2028 140.732 81.8758 140.88 81.4961V79.5186C140.69 79.0335 140.39 78.6432 139.978 78.3479C139.578 78.0526 139.156 77.905 138.713 77.905C138.28 77.905 137.901 78.0262 137.574 78.2688C137.257 78.5114 137.009 78.8278 136.83 79.218C136.651 79.5977 136.561 80.009 136.561 80.452C136.561 80.9055 136.661 81.3169 136.862 81.686C137.062 82.0551 137.331 82.3504 137.669 82.5719C138.017 82.7829 138.407 82.8883 138.839 82.8883Z" fill="white"/>
<path d="M42.8464 21.9122C43.9451 21.8023 47.9001 21.4727 52.9538 28.3941C58.0075 35.3154 57.1286 42.0171 65.6979 43.7749C62.5118 45.8989 54.9093 47.9716 49.9875 39.2705C43.8352 28.3941 42.6448 26.5264 35.6595 26.9659C37.6207 22.6506 42.0113 21.9957 42.8464 21.9122Z" fill="#FA6232"/>
<path d="M49.9875 15.65C52.7341 11.3654 60.5562 6.11396 69.8726 19.3853C74.5771 26.0869 77.6729 37.9521 87.4507 43.7749C87.2309 43.7749 77.6729 50.9159 69.8726 38.5014C62.0724 26.0869 60.5343 13.3429 49.9875 15.65Z" fill="#FA6232"/>
<path d="M62.5118 4.3341C65.1485 1.73402 71.8721 -2.41147 77.6729 1.80726C84.9238 7.08067 92.3945 25.0982 95.1411 28.3941C97.8876 31.6899 101.843 37.7324 107.446 38.5014C107.556 38.5014 103.71 48.389 95.1411 40.6987C86.5718 33.0083 82.0674 22.791 80.8589 20.5938C79.6504 18.3966 72.0699 1.6974 62.5118 4.3341Z" fill="#FA6232"/>
<path d="M84.2647 0.928361C89.5014 1.14809 100.041 4.68567 100.305 17.0782C100.195 16.9683 97.6679 15.3204 93.9326 16.5289C94.0424 16.6387 94.8115 4.77356 84.2647 0.928361Z" fill="#FA6232"/>
<path d="M43.2859 44.6539C40.5027 43.5553 34.8924 39.5343 34.7166 32.2394C34.4603 30.7746 35.178 28.0647 40.0999 28.9436C40.0999 29.2732 35.8153 35.4255 43.2859 44.6539Z" fill="white"/>
<path d="M48.3396 21.1433C48.5227 19.3123 50.1853 16.1995 55.3708 18.3968C55.1511 18.3968 53.5005 20.4841 53.9426 25.5378C52.9538 24.3293 50.449 21.7586 48.3396 21.1433Z" fill="white"/>
<path d="M59.3259 9.05837C60.278 7.22733 63.6545 4.33428 69.5431 7.41043C69.3234 7.63016 67.0163 9.05834 66.3571 12.3543C65.588 11.4387 63.1051 9.49782 59.3259 9.05837Z" fill="white"/>
<path d="M96.1299 18.3968C101.696 19.0925 111.818 23.6042 107.775 36.0846C107.775 35.9747 105.688 36.7437 101.733 32.569C101.733 32.4591 106.018 26.0872 96.1299 18.3968Z" fill="white"/>
</svg>
