<svg width="17" height="13" viewBox="0 0 17 13" fill="none" xmlns="http://www.w3.org/2000/svg">
<path d="M15.625 0.5625H1.375C1.06006 0.5625 0.75801 0.687611 0.535311 0.910311C0.312611 1.13301 0.1875 1.43506 0.1875 1.75V11.25C0.1875 11.5649 0.312611 11.867 0.535311 12.0897C0.75801 12.3124 1.06006 12.4375 1.375 12.4375H15.625C15.9399 12.4375 16.242 12.3124 16.4647 12.0897C16.6874 11.867 16.8125 11.5649 16.8125 11.25V1.75C16.8125 1.43506 16.6874 1.13301 16.4647 0.910311C16.242 0.687611 15.9399 0.5625 15.625 0.5625V0.5625ZM14.3187 1.75L8.5 5.77563L2.68125 1.75H14.3187ZM1.375 11.25V2.29031L8.16156 6.98688C8.26095 7.05583 8.37903 7.09277 8.5 7.09277C8.62097 7.09277 8.73905 7.05583 8.83844 6.98688L15.625 2.29031V11.25H1.375Z" fill="white"/>
</svg>
