<svg width="24" height="24" viewBox="0 0 24 24" fill="none" xmlns="http://www.w3.org/2000/svg">
<path d="M12 0.592285C13.5127 0.592285 14.9635 1.19321 16.0331 2.26286C17.1028 3.33251 17.7037 4.78327 17.7037 6.29599C17.7037 7.80871 17.1028 9.25947 16.0331 10.3291C14.9635 11.3988 13.5127 11.9997 12 11.9997C10.4873 11.9997 9.03652 11.3988 7.96687 10.3291C6.89722 9.25947 6.29629 7.80871 6.29629 6.29599C6.29629 4.78327 6.89722 3.33251 7.96687 2.26286C9.03652 1.19321 10.4873 0.592285 12 0.592285ZM12 14.8515C18.3026 14.8515 23.4074 17.404 23.4074 20.5552V23.4071H0.59259V20.5552C0.59259 17.404 5.6974 14.8515 12 14.8515Z" fill="white"/>
</svg>
