<svg width="14" height="18" viewBox="0 0 14 18" fill="none" xmlns="http://www.w3.org/2000/svg">
<path d="M7 9.80385C8.3314 9.80385 9.41071 8.72454 9.41071 7.39314C9.41071 6.06174 8.3314 4.98242 7 4.98242C5.6686 4.98242 4.58928 6.06174 4.58928 7.39314C4.58928 8.72454 5.6686 9.80385 7 9.80385Z" stroke="white" stroke-linecap="round" stroke-linejoin="round"/>
<path d="M6.99999 0.964355C5.29503 0.964355 3.6599 1.64165 2.45431 2.84724C1.24872 4.05283 0.571424 5.68796 0.571424 7.39293C0.571424 8.91328 0.89446 9.90811 1.77678 11.009L6.99999 17.0358L12.2232 11.009C13.1055 9.90811 13.4286 8.91328 13.4286 7.39293C13.4286 5.68796 12.7513 4.05283 11.5457 2.84724C10.3401 1.64165 8.70496 0.964355 6.99999 0.964355V0.964355Z" stroke="white" stroke-linecap="round" stroke-linejoin="round"/>
</svg>
