<svg width="31" height="31" viewBox="0 0 31 31" fill="none" xmlns="http://www.w3.org/2000/svg">
<path d="M15.5 2.79291C19.6386 2.79291 20.1288 2.80865 21.7632 2.88312C23.2745 2.95214 24.0952 3.20462 24.6415 3.4169C25.3649 3.69808 25.8812 4.034 26.4236 4.57638C26.9661 5.11875 27.3019 5.6351 27.5831 6.35851C27.7954 6.90477 28.0479 7.72554 28.1169 9.23667C28.1914 10.8712 28.2071 11.3614 28.2071 15.5C28.2071 19.6387 28.1914 20.1289 28.1169 21.7633C28.0479 23.2746 27.7954 24.0952 27.5831 24.6415C27.3019 25.3649 26.966 25.8814 26.4236 26.4237C25.8812 26.9661 25.3649 27.302 24.6415 27.5831C24.0952 27.7954 23.2745 28.048 21.7632 28.1169C20.1291 28.1915 19.6389 28.2072 15.5 28.2072C11.361 28.2072 10.8708 28.1915 9.23667 28.1169C7.72542 28.0479 6.90477 27.7954 6.35851 27.5831C5.6351 27.302 5.11863 26.9661 4.57625 26.4237C4.03387 25.8812 3.69796 25.3649 3.4169 24.6415C3.20462 24.0954 2.95202 23.2746 2.88312 21.7633C2.80853 20.1289 2.79279 19.6387 2.79279 15.5C2.79279 11.3614 2.80853 10.8712 2.88312 9.23679C2.95214 7.72554 3.20462 6.90477 3.4169 6.35851C3.69796 5.6351 4.03387 5.11875 4.57625 4.57638C5.11875 4.03387 5.6351 3.69808 6.35851 3.4169C6.90464 3.20462 7.72542 2.95214 9.23667 2.88312C10.8711 2.80865 11.3613 2.79291 15.5 2.79291ZM15.5 0C11.2904 0 10.7626 0.0178008 9.1094 0.0932422C7.4595 0.168563 6.33272 0.430609 5.34689 0.81375C4.32753 1.20985 3.46316 1.73987 2.60146 2.60158C1.73975 3.46328 1.20985 4.32765 0.81375 5.34689C0.430488 6.33284 0.168563 7.45962 0.0932422 9.1094C0.0178008 10.7626 0 11.2904 0 15.5C0 19.7096 0.0178008 20.2374 0.0932422 21.8906C0.168563 23.5405 0.430488 24.6673 0.81375 25.6531C1.20973 26.6724 1.73975 27.5368 2.60146 28.3985C3.46316 29.2602 4.32753 29.7902 5.34689 30.1863C6.33284 30.5695 7.4595 30.8314 9.10928 30.9068C10.7626 30.9822 11.2904 31 15.5 31C19.7096 31 20.2374 30.9822 21.8906 30.9068C23.5404 30.8314 24.6672 30.5695 25.653 30.1863C26.6723 29.7903 27.5367 29.2602 28.3984 28.3985C29.2601 27.5368 29.7902 26.6725 30.1863 25.6531C30.5694 24.6672 30.8314 23.5405 30.9068 21.8907C30.9822 20.2374 31 19.7096 31 15.5C31 11.2904 30.9822 10.7626 30.9068 9.1094C30.8314 7.45962 30.5694 6.33284 30.1863 5.34702C29.7902 4.32765 29.2601 3.46328 28.3984 2.60158C27.5367 1.73987 26.6724 1.20973 25.6531 0.81375C24.6672 0.430609 23.5404 0.168563 21.8906 0.0932422C20.2374 0.0178008 19.7096 0 15.5 0ZM15.5 7.54051C11.1041 7.54051 7.54051 11.1043 7.54051 15.5C7.54051 19.8959 11.1041 23.4595 15.5 23.4595C19.8958 23.4595 23.4595 19.8959 23.4595 15.5C23.4595 11.1042 19.8958 7.54051 15.5 7.54051ZM15.5 20.6667C12.6465 20.6667 10.3333 18.3535 10.3333 15.5C10.3333 12.6465 12.6465 10.3333 15.5 10.3333C18.3535 10.3333 20.6667 12.6465 20.6667 15.5C20.6667 18.3535 18.3535 20.6667 15.5 20.6667ZM25.6339 7.22603C25.6339 8.25339 24.8012 9.08603 23.7739 9.08603C22.7466 9.08603 21.9139 8.25339 21.9139 7.22603C21.9139 6.19879 22.7466 5.36603 23.7739 5.36603C24.8012 5.36603 25.6339 6.19879 25.6339 7.22603Z" fill="white"/>
</svg>
