<svg width="34" height="20" viewBox="0 0 34 20" fill="none" xmlns="http://www.w3.org/2000/svg">
<path d="M32.965 1.42488C33.1983 0.649877 32.965 0.081543 31.8616 0.081543H28.2066C27.2766 0.081543 26.8516 0.57321 26.6183 1.11321C26.6183 1.11321 24.76 5.64488 22.1266 8.58321C21.2766 9.43821 20.8883 9.70821 20.425 9.70821C20.1933 9.70821 19.8566 9.43821 19.8566 8.66321V1.42488C19.8566 0.494877 19.5883 0.081543 18.8133 0.081543H13.07C12.49 0.081543 12.14 0.511543 12.14 0.921543C12.14 1.80154 13.4566 2.00488 13.5916 4.48488V9.86488C13.5916 11.0432 13.38 11.2582 12.9133 11.2582C11.675 11.2582 8.66165 6.70988 6.87331 1.50321C6.52498 0.491543 6.17331 0.0832103 5.23998 0.0832103H1.58665C0.541647 0.0832103 0.333313 0.574877 0.333313 1.11488C0.333313 2.08488 1.57165 6.88488 6.10165 13.2332C9.12165 17.5682 13.3733 19.9182 17.2466 19.9182C19.5683 19.9182 19.855 19.3965 19.855 18.4965V15.2199C19.855 14.1765 20.0766 13.9665 20.8116 13.9665C21.3516 13.9665 22.2816 14.2399 24.45 16.3282C26.9266 18.8049 27.3366 19.9165 28.7283 19.9165H32.3816C33.425 19.9165 33.9466 19.3949 33.6466 18.3649C33.3183 17.3399 32.135 15.8482 30.565 14.0832C29.7116 13.0765 28.4366 11.9932 28.0483 11.4515C27.5066 10.7532 27.6633 10.4449 28.0483 9.82488C28.05 9.82654 32.5016 3.55654 32.965 1.42488Z" fill="white"/>
</svg>
