<svg width="200" height="170" viewBox="0 0 200 170" fill="none" xmlns="http://www.w3.org/2000/svg">
<path d="M46.5643 99.5L46.6806 98.5068L46.5643 99.5ZM73.0643 139.5L72.4608 140.297L73.0643 139.5ZM199.064 163L188.826 157.661L189.321 169.197L199.064 163ZM1.07134 0.88128C0.943493 1.9505 0.824677 3.05779 0.716248 4.19941L2.70729 4.38851C2.81423 3.26258 2.93133 2.17141 3.05719 1.11872L1.07134 0.88128ZM0.229734 10.864C0.11775 13.0162 0.0436066 15.2499 0.0142267 17.5463L2.01406 17.5719C2.04311 15.3018 2.11639 13.0943 2.22703 10.968L0.229734 10.864ZM0.0570338 24.2223C0.11328 26.4129 0.212337 28.6417 0.359519 30.8943L2.35526 30.7639C2.20987 28.5386 2.11197 26.3362 2.05637 24.171L0.0570338 24.2223ZM0.934116 37.5559C1.17181 39.7613 1.45918 41.9763 1.80105 44.1884L3.77758 43.8829C3.44064 41.7028 3.15718 39.5181 2.9226 37.3416L0.934116 37.5559ZM2.98933 50.7751C3.44439 52.9676 3.95884 55.1448 4.53758 57.294L6.46878 56.7739C5.90082 54.6648 5.39527 52.5255 4.9476 50.3686L2.98933 50.7751ZM6.4934 63.7081C7.227 65.8455 8.03403 67.9403 8.91997 69.9783L10.7542 69.181C9.89088 67.1951 9.10278 65.15 8.38509 63.0588L6.4934 63.7081ZM11.8845 76.0249C12.9825 78.0143 14.1728 79.927 15.4619 81.7465L17.0939 80.5903C15.8511 78.8363 14.7001 76.9874 13.6355 75.0585L11.8845 76.0249ZM19.7205 87.0047C21.2642 88.6671 22.9197 90.2125 24.6938 91.6224L25.9381 90.0567C24.2471 88.7127 22.665 87.2365 21.1861 85.6438L19.7205 87.0047ZM30.3377 95.4045C32.284 96.488 34.3448 97.4268 36.5254 98.2053L37.1978 96.3217C35.1215 95.5805 33.1612 94.6872 31.3105 93.657L30.3377 95.4045ZM43.0816 99.9782C44.1782 100.187 45.3002 100.359 46.4479 100.493L46.6806 98.5068C45.5792 98.3778 44.5043 98.2128 43.455 98.0134L43.0816 99.9782ZM46.4479 100.493C47.7822 100.649 49.0763 100.776 50.3311 100.873L50.4853 98.8785C49.2578 98.7836 47.9899 98.6601 46.6806 98.5068L46.4479 100.493ZM58.0774 101.105C60.9009 101.041 63.4768 100.799 65.8217 100.402L65.4874 98.43C63.2484 98.8097 60.7697 99.0434 58.0318 99.1058L58.0774 101.105ZM73.3681 98.3017C76.0818 97.1825 78.3201 95.7684 80.1325 94.1319L78.7921 92.6475C77.165 94.1167 75.1267 95.413 72.6056 96.4528L73.3681 98.3017ZM84.8039 87.6266C85.8773 85.1286 86.3813 82.4722 86.4484 79.8203L84.449 79.7697C84.3875 82.2038 83.9258 84.6042 82.9663 86.8371L84.8039 87.6266ZM85.4555 71.97C84.7361 69.3333 83.6693 66.8485 82.3898 64.6913L80.6696 65.7115C81.8569 67.7133 82.8536 70.0318 83.526 72.4964L85.4555 71.97ZM77.1285 58.6599C75.8784 57.7727 74.5415 57.1701 73.1834 57.0071L72.9451 58.9929C73.8825 59.1054 74.9084 59.5369 75.971 60.2909L77.1285 58.6599ZM73.1834 57.0071C71.9132 56.8547 70.6127 57.1783 69.3519 57.8243L70.2639 59.6043C71.2805 59.0835 72.1774 58.9008 72.9451 58.9929L73.1834 57.0071ZM63.9673 62.543C62.6358 64.1838 61.3368 66.1427 60.1206 68.354L61.8731 69.3178C63.0416 67.1932 64.2759 65.3368 65.5203 63.8032L63.9673 62.543ZM57.1846 74.6117C56.3634 76.6721 55.6185 78.8625 54.976 81.1532L56.9017 81.6933C57.5253 79.47 58.2476 77.3465 59.0425 75.3521L57.1846 74.6117ZM53.4539 87.8706C53.0666 90.0976 52.7834 92.3857 52.6242 94.7128L54.6195 94.8493C54.7738 92.5941 55.0484 90.3748 55.4243 88.2133L53.4539 87.8706ZM52.5306 101.612C52.6278 103.892 52.8564 106.19 53.2342 108.484L55.2076 108.159C54.8436 105.948 54.6227 103.731 54.5288 101.527L52.5306 101.612ZM54.7979 115.224C55.4604 117.409 56.2772 119.572 57.264 121.697L59.0779 120.855C58.1321 118.818 57.3482 116.742 56.7118 114.644L54.7979 115.224ZM60.6281 127.751C61.865 129.639 63.2612 131.478 64.8286 133.252L66.3276 131.928C64.8241 130.226 63.486 128.464 62.3011 126.655L60.6281 127.751ZM69.7586 138.115C70.6216 138.859 71.522 139.587 72.4608 140.297L73.6677 138.703C72.7624 138.017 71.895 137.316 71.0645 136.6L69.7586 138.115ZM72.4608 140.297C73.4242 141.026 74.425 141.734 75.4607 142.421L76.566 140.754C75.563 140.089 74.5962 139.405 73.6677 138.703L72.4608 140.297ZM81.7744 146.141C83.8781 147.246 86.0817 148.288 88.3701 149.269L89.1583 147.431C86.9133 146.468 84.7575 145.449 82.7047 144.37L81.7744 146.141ZM95.1566 151.922C97.4061 152.724 99.7168 153.478 102.077 154.186L102.652 152.27C100.322 151.571 98.0432 150.828 95.8283 150.038L95.1566 151.922ZM109.092 156.125C111.416 156.715 113.776 157.267 116.16 157.783L116.583 155.828C114.22 155.317 111.884 154.771 109.585 154.186L109.092 156.125ZM123.283 159.202C125.656 159.638 128.044 160.04 130.439 160.411L130.745 158.434C128.368 158.066 125.998 157.667 123.644 157.235L123.283 159.202ZM137.623 161.431C140.028 161.743 142.431 162.025 144.822 162.28L145.034 160.292C142.657 160.038 140.269 159.757 137.88 159.448L137.623 161.431ZM152.044 162.974C154.479 163.182 156.892 163.364 159.272 163.52L159.403 161.525C157.036 161.369 154.636 161.188 152.215 160.981L152.044 162.974ZM166.505 163.927C168.975 164.042 171.396 164.132 173.756 164.198L173.812 162.198C171.464 162.133 169.055 162.044 166.598 161.929L166.505 163.927ZM181.007 164.332C183.526 164.354 185.95 164.35 188.26 164.323L188.236 162.323C185.94 162.35 183.531 162.354 181.025 162.332L181.007 164.332Z" fill="#67A8D2"/>
</svg>
