<svg width="229" height="184" viewBox="0 0 229 184" fill="none" xmlns="http://www.w3.org/2000/svg">
<path d="M104 105.525L104.996 105.609L104 105.525ZM33 116.525L32.8187 115.541L32.8063 115.544L32.794 115.546L33 116.525ZM0 128.525L11.5406 128.91L6.10379 118.723L0 128.525ZM8.3027 125.569C9.93766 124.854 11.7444 124.105 13.6931 123.353L12.9729 121.487C10.9958 122.25 9.16195 123.01 7.50091 123.737L8.3027 125.569ZM19.1742 121.37C20.9562 120.768 22.8154 120.181 24.7352 119.626L24.1796 117.704C22.2296 118.268 20.3423 118.864 18.534 119.475L19.1742 121.37ZM30.3667 118.14C31.304 117.917 32.251 117.705 33.206 117.503L32.794 115.546C31.8215 115.751 30.8576 115.968 29.9039 116.194L30.3667 118.14ZM33.1813 117.508C34.3908 117.285 35.59 117.073 36.7789 116.872L36.4446 114.9C35.2462 115.103 34.0376 115.317 32.8187 115.541L33.1813 117.508ZM43.9001 115.773C46.3287 115.436 48.7115 115.145 51.0491 114.898L50.8386 112.909C48.4792 113.158 46.0749 113.452 43.6253 113.792L43.9001 115.773ZM58.2235 114.264C60.6747 114.092 63.0725 113.969 65.4177 113.894L65.3535 111.895C62.9825 111.971 60.5592 112.095 58.0831 112.269L58.2235 114.264ZM72.6214 113.81C75.0836 113.834 77.4826 113.912 79.8194 114.04L79.9293 112.043C77.5617 111.913 75.1324 111.834 72.6405 111.81L72.6214 113.81ZM86.9904 114.612C89.4375 114.869 91.8091 115.184 94.1064 115.553L94.4236 113.579C92.0897 113.204 89.6821 112.883 87.1995 112.622L86.9904 114.612ZM101.142 116.897C103.558 117.436 105.881 118.036 108.113 118.691L108.676 116.772C106.401 116.104 104.035 115.493 101.577 114.945L101.142 116.897ZM114.897 120.952C117.215 121.822 119.418 122.754 121.508 123.738L122.36 121.929C120.22 120.921 117.968 119.968 115.6 119.08L114.897 120.952ZM127.824 127.063C129.958 128.315 131.945 129.622 133.791 130.972L134.971 129.357C133.07 127.967 131.026 126.623 128.836 125.338L127.824 127.063ZM139.303 135.492C141.131 137.177 142.765 138.898 144.213 140.63L145.747 139.348C144.243 137.547 142.548 135.764 140.658 134.021L139.303 135.492ZM148.348 146.398C149.646 148.549 150.665 150.673 151.42 152.724L153.297 152.033C152.495 149.856 151.419 147.617 150.06 145.364L148.348 146.398ZM153.005 159.506C153.112 160.711 153.109 161.855 153.005 162.928L154.995 163.122C155.113 161.916 155.114 160.647 154.997 159.329L153.005 159.506ZM153.005 162.928C152.907 163.925 152.667 164.957 152.292 166.005L154.176 166.678C154.598 165.496 154.88 164.303 154.995 163.122L153.005 162.928ZM149.07 171.642C147.755 173.305 146.164 174.878 144.376 176.266L145.603 177.846C147.513 176.363 149.219 174.677 150.638 172.883L149.07 171.642ZM138.731 179.673C136.717 180.576 134.603 181.217 132.457 181.518L132.735 183.499C135.087 183.169 137.383 182.47 139.55 181.497L138.731 179.673ZM126.001 181.329C123.981 180.901 121.982 180.101 120.06 178.855L118.972 180.533C121.102 181.914 123.329 182.807 125.587 183.285L126.001 181.329ZM115.227 174.507C113.936 172.964 112.708 171.137 111.572 168.991L109.805 169.926C111 172.184 112.303 174.13 113.694 175.791L115.227 174.507ZM108.901 162.842C108.203 160.879 107.566 158.735 106.998 156.399L105.055 156.871C105.637 159.268 106.294 161.478 107.017 163.512L108.901 162.842ZM105.673 149.793C105.33 147.682 105.036 145.445 104.795 143.078L102.805 143.28C103.05 145.684 103.349 147.961 103.699 150.114L105.673 149.793ZM104.278 136.31C104.162 134.137 104.087 131.871 104.055 129.508L102.055 129.535C102.087 131.923 102.163 134.215 102.28 136.416L104.278 136.31ZM104.079 122.671C104.123 120.468 104.2 118.19 104.314 115.836L102.316 115.739C102.202 118.112 102.123 120.409 102.079 122.632L104.079 122.671ZM104.723 109.1C104.806 107.953 104.897 106.789 104.996 105.609L103.003 105.441C102.904 106.629 102.812 107.8 102.728 108.955L104.723 109.1ZM104.996 105.609C105.094 104.444 105.206 103.292 105.33 102.152L103.342 101.935C103.216 103.092 103.103 104.26 103.003 105.441L104.996 105.609ZM106.245 95.3598C106.615 93.0633 107.04 90.8202 107.517 88.6294L105.563 88.2036C105.078 90.4306 104.646 92.7096 104.27 95.0416L106.245 95.3598ZM109.167 81.9828C109.793 79.746 110.475 77.568 111.212 75.4475L109.322 74.7915C108.572 76.9511 107.877 79.1682 107.241 81.4441L109.167 81.9828ZM113.663 69.0548C114.562 66.9197 115.519 64.848 116.528 62.8382L114.741 61.9405C113.711 63.9902 112.736 66.1023 111.82 68.2785L113.663 69.0548ZM119.807 56.8319C120.982 54.8448 122.212 52.9244 123.492 51.0686L121.846 49.9331C120.54 51.8268 119.285 53.7864 118.086 55.8137L119.807 56.8319ZM127.569 45.5778C129.004 43.7796 130.489 42.0492 132.017 40.3846L130.544 39.0319C128.985 40.7299 127.47 42.4953 126.006 44.3302L127.569 45.5778ZM136.811 35.5087C138.477 33.9247 140.185 32.4085 141.928 30.9578L140.649 29.4205C138.872 30.8987 137.132 32.4441 135.433 34.0592L136.811 35.5087ZM147.332 26.7469C149.188 25.3928 151.075 24.105 152.987 22.881L151.909 21.1964C149.963 22.4418 148.042 23.7525 146.153 25.1313L147.332 26.7469ZM158.863 19.359C160.869 18.2341 162.895 17.1735 164.934 16.1747L164.054 14.3786C161.983 15.3932 159.924 16.471 157.885 17.6146L158.863 19.359ZM171.176 13.3209C173.299 12.4174 175.428 11.5766 177.556 10.7955L176.867 8.918C174.708 9.71033 172.547 10.5635 170.393 11.4807L171.176 13.3209ZM184.047 8.59208C186.263 7.89939 188.469 7.2688 190.657 6.69689L190.151 4.76188C187.933 5.34157 185.697 5.98084 183.45 6.6832L184.047 8.59208ZM197.336 5.11619C199.62 4.63139 201.872 4.20928 204.084 3.84571L203.76 1.87219C201.518 2.24069 199.235 2.66849 196.921 3.15981L197.336 5.11619ZM210.886 2.89148C213.234 2.61887 215.518 2.41304 217.725 2.26824L217.594 0.272535C215.354 0.419536 213.037 0.628389 210.655 0.904826L210.886 2.89148ZM224.561 2.00556C225.733 1.99392 226.873 2.00069 227.978 2.02472L228.022 0.0251958C226.894 0.000688239 225.733 -0.00618957 224.541 0.00565533L224.561 2.00556Z" fill="#67A8D2"/>
</svg>
