<svg width="47" height="82" viewBox="0 0 47 82" fill="none" xmlns="http://www.w3.org/2000/svg">
<path d="M47 27.5341C47 40.3407 39.5377 51.1052 29.4299 54.1841C27.5356 54.7611 25.5484 55.0682 23.5 55.0682C21.1806 55.0682 18.9398 54.6745 16.8234 53.9411C7.09688 50.5703 0 40.0233 0 27.5341C0 12.3274 10.5213 0 23.5 0C36.4787 0 47 12.3274 47 27.5341Z" fill="#1B567C"/>
<path d="M23.5 55.0682C21.1806 55.0682 18.9398 54.6745 16.8234 53.9411L15.9888 56.4735C15.8277 57.1907 15.9888 58.634 17.9215 58.6692C18.5799 58.6811 19.5933 58.6867 20.7327 58.6881C22.1949 58.6901 23.8645 58.6853 25.257 58.6791C25.9647 58.676 26.6009 58.6724 27.1019 58.6692C27.9072 58.757 29.5968 58.6867 29.9131 57.7031C30.2293 56.7194 29.7227 54.9473 29.4299 54.1841C27.5356 54.7611 25.5484 55.0682 23.5 55.0682Z" fill="#1B567C"/>
<path d="M20.7327 58.6881C21.6698 59.8382 23.6318 62.3053 23.9832 62.9728C24.3346 63.6402 24.6274 64.4512 24.7299 64.7732C24.8763 65.1099 25.011 65.9413 24.3785 66.5737C23.746 67.2061 21.948 68.8572 21.128 69.6038C20.7766 70.0136 20.0299 70.93 19.8542 71.3164C19.6346 71.7995 19.5907 72.7217 19.5907 73.0291C19.5907 73.3365 19.7664 74.5661 20.1617 75.2687C20.557 75.9713 21.6551 77.8596 22.6654 78.8696C23.6757 79.8797 25.0374 81.3727 26.1355 81.8997C26.6275 82.2159 27.4826 81.7094 27.8486 81.4167C28.3025 81.0653 28.9555 80.0905 27.9364 79.0014C26.6626 77.64 25.5645 77.0253 24.5542 75.7078C23.746 74.6539 23.3097 73.8342 23.1925 73.556C23.0607 73.2486 23.0256 72.4406 23.9393 71.6677C24.8529 70.8949 26.1062 69.8819 26.6187 69.472L27.8047 67.8911C28.1561 67.3788 28.7535 66.0028 28.3318 64.5976C27.8047 62.841 27.014 61.0165 25.257 58.6791C23.8645 58.6853 22.1949 58.6901 20.7327 58.6881Z" fill="#1B567C"/>
</svg>
