<svg width="90" height="54" viewBox="0 0 90 54" fill="none" xmlns="http://www.w3.org/2000/svg">
<path fill-rule="evenodd" clip-rule="evenodd" d="M35.9182 30.1092L7.80465 22.9604C6.85354 22.5679 5.05204 21.2783 5.45486 19.2598C5.95838 16.7367 7.30112 16.3162 8.55994 16.3162H13.0078H41.5409C42.9396 14.4098 46.6601 10.4121 50.3526 9.67196C50.2183 9.60468 50.2966 7.00867 50.3526 5.71907L17.7912 7.31705C16.5884 7.23294 14.2162 6.54329 14.3505 4.45751C14.4848 2.37173 16.5324 1.90636 17.5395 1.93439L50.3526 3.36416V1.68208C50.4085 1.12139 50.8393 0 52.1149 0C53.3905 0 53.8213 1.12139 53.8773 1.68208V3.36416L87.11 1.68208C88.0331 1.82225 89.8794 2.5904 89.8794 4.54162C89.8794 6.49283 88.0331 7.14884 87.11 7.23295L53.8773 5.71907V9.16734C59.6398 8.83092 72.9441 9.7056 80.0606 15.8957C87.1771 22.0857 89.5717 27.7263 89.8794 29.7728C90.3549 33.4173 89.678 41.3624 83.1657 43.9864C76.6534 46.6104 69.5425 47.0422 66.8011 46.93H49.933C46.6041 46.9861 39.4429 45.8703 37.4288 40.9587C36.0189 37.9309 35.8343 32.4641 35.9182 30.1092ZM61.8498 18.587C62.3197 15.4247 65.2905 14.8584 66.7172 14.9705C79.1375 14.2977 86.8582 29.0159 85.9351 30.1092C85.1966 30.9839 82.7181 31.5951 81.5712 31.7913C77.515 31.9595 68.5802 32.3128 65.2905 32.38C62.0008 32.4473 61.1784 28.5954 61.1784 26.661C61.2064 25.2873 61.3798 21.7493 61.8498 18.587Z" fill="#1B567C"/>
<path fill-rule="evenodd" clip-rule="evenodd" d="M8.89562 28.5954C13.8085 28.5954 17.7912 24.604 17.7912 19.6803C17.7912 14.7567 13.8085 10.7653 8.89562 10.7653C3.98271 10.7653 0 14.7567 0 19.6803C0 24.604 3.98271 28.5954 8.89562 28.5954ZM8.8117 26.2405C12.3805 26.2405 15.2736 23.341 15.2736 19.7644C15.2736 16.1878 12.3805 13.2884 8.8117 13.2884C5.24289 13.2884 2.34979 16.1878 2.34979 19.7644C2.34979 23.341 5.24289 26.2405 8.8117 26.2405Z" fill="#1B567C"/>
<path d="M34.4076 50.5465H76.0324C78.3262 50.4904 83.2496 49.9746 84.5923 48.3598C85.9351 46.745 86.8302 46.7338 87.11 46.93C87.8093 47.3225 88.9395 48.5112 87.8653 50.126C86.7911 51.7408 83.8371 52.8173 82.4943 53.1537C80.0047 53.4621 72.7091 54.0621 63.4443 53.9948C54.1794 53.9275 40.0583 53.9667 34.1558 53.9948C33.6523 53.8266 32.662 53.221 32.7292 52.1445C32.7963 51.068 33.8761 50.6306 34.4076 50.5465Z" fill="#1B567C"/>
</svg>
