<svg width="80" height="80" viewBox="0 0 80 80" fill="none" xmlns="http://www.w3.org/2000/svg">
<path d="M74.6313 5.97802C74.6027 5.83983 74.5354 5.71264 74.4372 5.61135C74.3389 5.51006 74.2138 5.43888 74.0766 5.40615C64.925 3.16865 43.7797 11.1421 32.3235 22.5936C30.2801 24.6205 28.4174 26.8215 26.7563 29.1718C23.2235 28.8593 19.6906 29.1202 16.6797 30.4327C8.18439 34.1718 5.71095 43.928 5.02189 48.1249C4.98281 48.3546 4.99755 48.5903 5.06496 48.8133C5.13237 49.0364 5.25061 49.2407 5.41038 49.4103C5.57015 49.58 5.76709 49.7102 5.98572 49.7908C6.20434 49.8714 6.43869 49.9002 6.67033 49.8749L20.3125 48.3702C20.3223 49.3987 20.3843 50.4261 20.4985 51.4483C20.5671 52.1582 20.8822 52.8216 21.3891 53.3233L26.6719 58.5936C27.1741 59.0998 27.8372 59.4148 28.5469 59.4843C29.5634 59.598 30.585 59.66 31.6078 59.6702L30.111 73.2952C30.086 73.5268 30.115 73.761 30.1957 73.9794C30.2764 74.1979 30.4067 74.3947 30.5762 74.5544C30.7458 74.7141 30.95 74.8324 31.1729 74.8999C31.3958 74.9674 31.6313 74.9824 31.861 74.9436C36.05 74.2718 45.8235 71.7983 49.5406 63.303C50.8531 60.2921 51.1219 56.7765 50.8188 53.2608C53.1747 51.5996 55.3815 49.7363 57.4141 47.6921C68.9063 36.2577 76.8344 15.5843 74.6313 5.97802ZM45.9485 34.0515C44.8991 33.0028 44.1843 31.6664 43.8945 30.2114C43.6047 28.7564 43.7529 27.2482 44.3204 25.8774C44.888 24.5067 45.8493 23.3351 47.0827 22.5107C48.3162 21.6864 49.7664 21.2464 51.25 21.2464C52.7336 21.2464 54.1838 21.6864 55.4173 22.5107C56.6508 23.3351 57.6121 24.5067 58.1796 25.8774C58.7471 27.2482 58.8953 28.7564 58.6055 30.2114C58.3158 31.6664 57.601 33.0028 56.5516 34.0515C55.8557 34.7483 55.0293 35.3011 54.1196 35.6783C53.2099 36.0555 52.2348 36.2497 51.25 36.2497C50.2652 36.2497 49.2901 36.0555 48.3804 35.6783C47.4707 35.3011 46.6443 34.7483 45.9485 34.0515Z" fill="#1B567C"/>
<path d="M26.3125 62.4109C25.4562 63.2688 24.0828 63.6031 22.4297 63.8891C18.7156 64.5219 15.4359 61.3125 16.1031 57.5578C16.3578 56.1344 17.1109 54.1391 17.5797 53.6703C17.6821 53.5698 17.7503 53.4396 17.7746 53.2982C17.7988 53.1568 17.7779 53.0113 17.7148 52.8824C17.6516 52.7535 17.5495 52.6478 17.4229 52.5803C17.2962 52.5128 17.1516 52.4869 17.0094 52.5063C14.9324 52.7604 13.0002 53.702 11.5203 55.1813C7.84688 58.8578 7.5 72.5 7.5 72.5C7.5 72.5 21.15 72.1531 24.8234 68.4766C26.3073 66.9979 27.2501 65.0627 27.5 62.9828C27.5578 62.3297 26.7625 61.9406 26.3125 62.4109Z" fill="#1B567C"/>
</svg>
